<?xml version="1.0" encoding="UTF-8"?>
<svg enable-background="new 0 0 647.814 332.227" viewBox="0 0 647.814 332.227" xmlns="http://www.w3.org/2000/svg">
 <path d="m322.4,34.323c.709-.124.756.415 1.317.439 .652,2.098 1.104,7.451-.878,8.345-3.223-.576-1.995-6.859-.439-8.784z"/>
 <path d="m537.613,82.635h.878v1.317h-1.317c-.123-.708.415-.755.439-1.317z"/>
 <path d="m321.961,85.271c3.571,1.105-.538,5.084 1.757,7.467-1.151.312-.421,2.507-1.757,2.635-3.104-1.792-2.377-8.294 0-10.102z"/>
 <path d="m242.024,239.434c-3.461-5.222-8.042-10.719-15.812-11.858-1.857-.271-3.876.173-5.71,0-9.276-.877-16.976-4.557-20.204-11.42-1.121-2.384-.672-4.55-1.318-7.466-1.007-4.553-3.816-12.559-7.466-14.935-4.459-2.901-15.402-5.508-23.717-5.271-11.112.316-26.903,6.979-39.09.879-2.144-1.073-3.282-2.337-4.832-3.953-1.121-1.17-3.107-2.76-3.953-4.393-1.067-2.06-1.266-5.127-2.635-7.468-1.497-2.555-4.063-4.521-7.027-6.588-1.996-1.391-4.461-3.436-7.027-4.392-8.809-3.281-18.878-2.002-28.988-3.953-3.32-.641-7.369-2.556-10.541-4.392-2.805-1.624-8.024-4.598-8.345-6.588-.69-4.291 4.217-6.469 4.831-10.541 2.964-2.015 3.251-6.704 7.027-7.906-.443-3.703 4.322-5.726 6.588-8.784 .75-1.013 1.387-3.209 2.196-4.392 2.243-3.277 6.21-6.446 7.906-10.541 5.205-3.141 8.921-7.77 12.737-12.299 .374-.081.415.172.439.439 4.014,3.474 4.703,7.857 8.784,10.979 1.01.773 2.658,1.444 3.953,2.196 6.884,3.997 16.641,6.823 25.474,9.225 1.6.435 3.559.354 4.832.878 5.124,2.11 7.279,7.396 11.859,9.663 2.732,8.541 5.101,17.444 7.906,25.913 1.905,2.778 3.869,4.624 7.027,7.027 1.613,1.229 2.886,2.634 4.392,3.075 3.907,1.145 8.552-.331 12.737,1.757 2.556-1.306 6.021-1.368 8.784-1.318 1.672.03 3.825.624 5.71.88 3.662.493 6.251.771 8.784,2.195 2.938,1.651 10.246,7.945 11.419,12.298 2.012,7.46.935,17.366 3.953,25.035 1.275,3.24 4.169,6.185 6.149,8.784 7.333,1.906 17.685,5.135 22.399,10.103 1.399,1.474 3.448,4.17 2.635,7.026-.59,2.077-5.26,3.942-7.027,5.71-1.325,1.332-3.008,3.274-4.829,4.396zm-89.159-103.215c-1.499-4.433-4.301-11.221-8.345-11.858-8.02-1.265-11.988,9.723-7.906,17.568 3.325,3.123 11.016,3.205 15.812,1.317 .92-3.142 1.396-4.194.439-7.027zm-7.467,10.981c-1.841,7.37 9.686,6.931 7.906-1.317-2.649-1.203-5.688.66-7.906,1.317zm3.953,25.914c-.209-1.945.604-2.185 0-3.514-9.066-5.884-7.012,9.689 0,3.514z"/>
 <path d="m337.772,114.259c1.4-.376 1.357.691 2.195.879-.552,3.218.027,4.942-.879,7.905-4.627.474-2.342-7.09-1.316-8.784z"/>
 <path d="m362.37 115.14h3.074c-0.114 4.325 1.611 9.961-1.758 10.541-3.138-2.048-0.719-6.081-1.316-10.541z"/>
 <path d="m336.894,135.781c2.521,1.145 2.173,7.82.88,10.102-3.399-1.032-2.241-7.786-.88-10.102z"/>
 <path d="m297.365,158.18c1.1-.074 1.375.675 1.757,1.316-.018,1.945-2.772,2.207-3.074.439-.075-1.097.674-1.373 1.317-1.755z"/>
 <path d="m297.365,162.573c1.357.114 2.452,1.811 1.318,3.074h-1.757c-.948-.941-.225-2.454.439-3.074z"/>
 <path d="m227.97,250.854c.392,4.493-3.056,6.334-4.832,8.784-1.378,1.901-1.623,4.102-3.514,5.71-3.682-1.297-5.299-4.656-8.784-6.149-3.833.486-6.585-1.385-9.663-1.317-1.35.029-2.887.901-4.392.878-1.246-.02-2.624-.709-3.953-.878-4.946-.632-9.048.06-13.176-2.195-4.581-2.503-8.6-9.029-12.737-12.737-.538-.481-1.85-.7-2.635-1.317-2.083-1.639-4.097-2.158-7.467-3.514-3.295-1.325-4.194-2.235-8.784-3.074-2.303-.421-4.434-1.272-7.027-.879-.687.104-1.528,1.172-2.196,1.317-2.796.613-3.851.397-6.149,1.317-2.226.892-3.235.595-5.709,1.317-1.693.495-3.183,1.715-4.832,2.196-1.315.384-2.986.068-4.392.438-3.499.921-10.227,2.603-15.372,1.318-1.465-.365-2.395-1.973-3.953-2.636-1.47-.625-3.231-.364-4.392-.878-2.378-1.056-5.316-2.853-7.467-4.394-3.837-2.749-6.399-5.789-10.98-8.345-2.482-1.385-6.907-4.092-10.102-4.831-3.729-.863-7.199.146-11.419-1.318-8.877,2.122-20.512,3.057-29.866,2.196-2.149-1.804-4.624-3.282-6.149-5.71 1.932-7.73 4.155-15.17 8.345-20.644 .784-7.121 4.117-11.694 7.467-16.251 .486-1.381.133-1.854.878-3.514 2.473-2.798 4.283-6.258 6.588-9.224 4.917,4.349 12.804,13.422 21.96,13.615 4.333.093 8.503-1.557 12.737-1.757 17.789-.843 25.3,7.706 32.062,18.446 2.665,4.231 5.827,7.82 8.784,11.859 5.644,3.641 10.516,5.751 19.765,5.271 12.468-.647 28.353-11.164 41.286-2.636 2.636,1.738 4.308,3.339 5.71,6.588 .525,1.219.351,2.6.878,3.953 .872,2.236 2.738,4.214 3.514,6.148 .448,1.116.396,2.408.878,3.515 1.256,2.883 3.246,6.356 5.709,8.345 1.036.835 3.158,1.706 5.271,2.635 1.741.768 4.1,2.053 5.271,2.196 2.132.264 4.245-.905 6.149-.878 7.03.107 11.357,3.19 16.69,7.034z"/>
 <path d="m299.122,168.282c.058,1.083.067,2.116-.439,2.636-1.917.308-1.953-1.269-3.514-1.316 .371-1.325 2.476-2.476 3.953-1.32z"/>
 <path d="m383.01 204.3c0.239 2.093 1.017 6.436-0.438 8.784h-2.196c-1.329-2.516-1.65-9.231 2.634-8.784z"/>
 <path d="m369.835,210.885c.706,1.052 1.445,2.068 1.317,3.953-1.441.265-5.122-.623-4.831-3.514 .639-.678 2.248-.386 3.514-.439z"/>
 <path d="m354.023,216.595c.786-.057.926.537 1.757.438-1.111,4.325 1.904,10.085-3.075,10.541-.282-3.108-1.044-7.838 1.318-10.979z"/>
 <path d="m282.432,238.995h1.757c1.421,1.946.676,6.06 1.318,8.784-1.39-.071-1.468,1.168-3.075.879-1.052-2.051-.559-6.707 0-9.663z"/>
 <path d="m466.021,254.368c.627,2.347.487,7.436-1.317,8.784-2.806-.594-2.886-9.799 1.317-8.784z"/>
 <path d="m335.576,285.112c-3.382-.571-.583-5.553-.878-8.345 1.09.065 1.821-.228 2.194-.878 1.931.587.647,8.68-1.316,9.223z"/>
 <path d="m472.171,306.633c-1.974.07-1.956-1.851-3.514-2.195 2.417-.949.055-6.68 3.073-7.027 3.669.718 2.011,6.634.441,9.222z"/>
 <path d="m.897,331.229c-1.387-8.199-.858-16.373-.439-25.913 .819-18.635 2.817-35.147 6.149-50.948 .849-4.026 2.322-8.008 2.196-12.737 2.31-.089 3.291,2.163 5.271,3.074 3.233,1.488 7.281,1.234 10.541,3.074 5.378-.884 9.566-1.247 15.812-2.195 1.732-.264 3.795-1.229 5.271-1.317 1.231-.072 2.323.58 3.514.438 4.682-.552 9.18-2.392 14.055-2.196 2.117.087 3.976,1.256 6.149,1.758 2.55.591 4.372-.118 6.149,1.317 2.341,1.893 4.939,4.588 7.906,7.027 3.367,2.768 6.318,5.029 10.102,7.467 1.066.688 3.219,2.459 4.831,3.074 3.93,1.498 7.521.575 12.737,2.196 4.996-1.62 9.324-2.696 13.615-4.832 6.15-3.061 10.133-7.841 19.765-6.588 4.37.566 6.462,1.281 10.102,3.073 1.932.951 4.316,1.869 5.271,2.637 2.51,2.017 4.077,5.396 6.588,7.467 2.902,2.392 6.046,3.459 9.224,5.709 1.75.141 3.245.023 3.953-.878 3.72,2.504 8.228,3.812 14.055,3.953 4.692.11 10.69-1.822 13.616,1.316 1.469-1.752 1.215-5.227 3.075-6.588 3.433.146 4.364.07 7.906,0 1.605,1.277-.165,3.282.878,4.831 1.918-.308 2.474.747 4.392.439 2.044-1.126-.636-4.371 1.317-5.71 3.987.014 5.517.267 9.224,0 1.493,1.936-.757,4.912 2.196,5.271 3.331.402 1.833-2.518 3.514-5.271 8.21-1.319 10.621,4.204 18.447,4.392-.338-21.178 1.122-40.461 0-63.687-.715-2.214-4.061-1.795-6.149-2.635-6.298-4.246-9.071-10.703-11.858-19.325-3.049-9.432-4.518-20.1-10.541-27.23-3.55-4.203-7.971-7.111-13.176-10.541-8.363-2.893-24.921-2.105-32.502-7.906-3.649-2.792-7.178-8.86-9.223-13.616-3.191-7.418-4.237-14.602-8.784-19.764-1.696-1.925-4.019-4.241-6.588-6.149-1.675-1.243-3.496-2.245-5.709-3.514-.774-.443-1.312-1.116-1.757-1.318-4.864-2.211-10.815-2.64-15.812-4.83-2.652-1.163-5.698-3.724-8.345-5.711-2.756-2.068-5.784-4.354-7.027-6.588-4.37-7.85 2.803-12.708 8.345-17.567 3.888-3.41 8.27-7.54 12.298-10.103 9.972-6.341 18.556-11.291 28.988-15.812 1.596,2.293.279,4.167.878,7.026 1.982,9.464 11.77,14.3 19.764,19.325 6.134,3.856 13.652,6.975 17.569,12.298 1.837,2.498 2.062,5.436 4.392,7.906-.294,3.537 1.568,5.854 1.757,9.225 .421,7.545-2.402,15.292-1.318,22.398 .959,6.287 3.968,13.996 9.663,16.69 4.81,2.275 10.503,1.739 15.373,3.514 2.203.803 4.693,2.149 7.027,3.514 2.157,1.263 5.115,2.645 6.588,3.953 3.267,2.904 5.624,9.305 6.149,15.372 .322,3.725-1.205,7.854 1.757,10.98 3.364-2.827 4.683-7.188 7.466-10.98 1.665-2.268 3.309-4.691 4.832-7.905-.322-2.904-.523-6.604-.439-10.979-4.62-11.016-17.485-12.95-27.231-18.447-7.914-4.464-10.912-11.228-13.616-21.082 1.014-3.149-.024-6.545 0-10.102 .026-3.783.523-7.884-.439-11.858-.295-1.219-1.299-2.242-1.757-3.514-.51-1.417-.378-2.805-.878-3.953-1.818-4.166-5.062-7.84-6.588-11.419-8.837-6.389-19.15-11.302-25.914-19.765-1.058-4.143-3.332-8.425-1.317-13.177 1.516-1.559 4.104-2.045 5.271-3.953 12.404-4.778 25.679-9.102 39.529-12.736 4.596-1.207 9.272-1.977 14.055-3.075 4.05-.93 7.441-2.688 11.419-3.074 1.562-.151 3.188.256 4.832,0 1.17-.182 2.318-1.082 3.514-1.317 1.638-.323 3.878-.204 5.71-.439 1.81-.232 3.584-.706 5.271-.878 4.708-.482 9.709-.489 13.615-.878 5.897-.589 13.554-.142 20.643-.439 4.963-.209 9.801-.673 14.494-.438 4.67.231 9.197,1.041 13.615,1.316 4.663.292 9.938-.779 13.615,2.196-.75,4.228-3.782,6.173-5.271,9.663 .366,8.053-.007,11.982 1.757,17.568 .815,2.583 2.421,3.603 3.075,5.71 .689,2.221 1.502,6.87 1.757,9.663 .335,3.683-.27,6.182-.879,9.223-.657,3.282-.75,5.006-2.196,7.906-2.658,5.333-8.675,10.042-10.102,16.251-.492,2.143-.072,6.256 0,9.663 .05,2.358-.726,5.011.879,6.588 3.805-1.249 1.089-7.191 1.757-10.98 .307-1.739 1.723-2.468 2.195-3.953 2.288,1.283 4.702.171 6.589,1.317 .915,1.566-1.453,6.749 2.195,6.588 2.905-.964-.152-5.167 1.317-7.466 .974-1.747 2.993.286 4.393-.878-.299-7.964 5.241-12.995 8.784-19.766 1.661-3.173 2.877-5.481 3.514-10.541 1.101-8.734-2.663-16.417-2.195-27.67 .273-6.597 3.224-10.847 8.784-14.055 25.005,1.347 43.913,8.792 61.489,17.569 .184,2.366-1.478,4.125-1.757,6.588-.319,2.803.235,5.797 0,8.784-.349,4.396-2.181,8.402-1.757,12.298-4.4,7.464-8.775,11.815-16.252,14.494-2.271.812-5.028.625-7.467,1.757-3.996,1.855-9.268,7.763-11.857,11.857-2.11,3.338-3.188,11.19-2.196,15.812 .732,3.412.562,8.15 1.317,10.979 .82,3.076 2.648,5.043 3.074,7.906 .493,3.325.067,8.599-.879,11.859-.566,1.954-2.149,3.605-2.195,5.71-1.769,1.306-3.104,3.045-3.952,5.271-2.519.265-3.145,2.419-5.71,2.636 .274,8.773-1.058,14.888 0,23.277 3.311-2.105 6.376-4.458 10.102-6.147 4.512-4.938 9.451-7.392 12.298-14.494 .435-1.082.046-2.107.439-3.515 .529-1.896 2.332-3.736 2.635-5.271 .69-3.487.645-7.748.879-11.42 .707-11.051 1.233-22.646 5.71-29.866 1.687-2.72 5.92-6.464 8.784-8.784 4.867-3.942 11.258-5.986 15.812-10.541 1.493-1.494 3.994-4.74 4.832-6.588 3.414-7.537 1.012-18.036 4.83-24.596 1.615-2.774 4.344-3.524 7.027-6.149 5.906,1.854 9.873,5.646 16.251,7.027 9.822,8.04 22.604,13.119 29.866,23.717 .884,6.087-1.645,9.917-3.514,14.056-1.088,2.405-1.646,4.992-2.636,6.588-1.371,2.212-3.945,5.509-5.71,7.026-.64.552-2.105.608-3.074,1.318-1.744,1.279-4.14,4.06-6.588,5.271-6.825,3.375-15.229,3.763-21.521,7.906-2.297,1.512-3.851,4.031-6.149,5.271-2.121,4.066-2.972,8.099-3.514,13.176-.751,7.044-.806,20.669-3.514,27.23-.496,1.202-2.846,4.403-3.953,5.71-3.072,3.623-7.774,6.567-12.298,9.225-9.003,5.286-18.822,8.309-24.597,16.688-2.499,3.628-6.354,8.837-6.588,14.056-1.479,1.303-1.858,3.704-2.196,6.148-1.006,1.398-1.766.761-2.635,1.757 1.088,6.445.034,16.649.438,22.399 6.094,1.274 8.967-5.012 10.979-9.224 2.484-5.193 4.197-11.515 7.027-15.812 5.51-8.365 13.787-11.875 21.082-18.007 8.509-2.747 15.435-6.771 21.521-12.299 1.778-1.614 4.045-3.64 5.271-5.271 8.248-10.971 7.58-27.843 12.736-42.603 1.918-1.375 2.322-3.706 3.953-5.271 6.153-5.903 16.901-7.551 25.035-11.858 3.979-2.107 6.391-5.15 10.103-7.027 4.172-5.344 7.925-11.106 8.784-19.765 4.628-.561 7.617,3.916 10.541,6.588 5.687,5.199 10.55,9.73 15.812,15.812 2.254,2.604 5.086,4.997 7.027,7.468 1.411,1.795 2.057,3.852 3.514,5.709 1.131,1.441 2.479,2.876 3.953,4.832 1.942,2.581 6.903,7.723 7.026,10.979 .077,2.036-2.309,5.762-3.514,7.467-4.005,5.666-10.677,11.686-21.082,10.98-1.87-.127-3.385-1.113-5.271-1.318-2.476-.269-5.367.385-8.347.439-3.38.062-6.73-.536-9.223,0-4.966,1.067-13.296,6.94-15.373,11.419-1.387,2.991-1.668,7.058-2.635,10.541-1.608,5.796-2.073,10.587-4.394,15.372-2.232,4.607-6.122,8.724-10.979,11.42-4.645,2.577-12.343,4.68-17.569,4.831-4.774.138-12.701-1.93-16.25,1.316 2.499,5.406 2.293,13.52 4.831,18.888 12.114-6.32 28.33-1.533 38.65-7.906 8.248-5.094 12.775-12.973 16.251-23.717 1.93-5.969 3.577-10.605 7.905-14.935 1.867-1.867 4.992-4.445 6.589-5.271 9.319-4.821 20.641-1.792 31.623-3.953 5.077-.999 14.768-5.776 17.567-10.103 1.443-2.229.786-5.396 3.514-7.026 2.427-.24 3.649,2.251 4.831,3.953 3.607,5.194 6.391,11.396 9.663,18.007 4.384,8.852 7.446,16.305 11.858,26.792 1.87,4.443 5.375,9.829 4.393,14.494-.967,4.587-8.027,8.48-13.177,10.541-.786.313-1.457.083-2.196.438-2.128,1.027-2.732,2.188-6.147,3.074-2.044.531-8.06,1.846-10.541,1.757-4.27-.152-8.07-2.5-11.42-3.953-3.738-1.621-7.022-3.311-10.541-4.831-12.976-.584-23.341,3.231-28.987,10.541-1.771,2.292-3.062,5.039-4.832,7.467-2.082,2.857-3.587,6.374-6.588,8.346-4.757,3.125-11.875,8.159-20.643,7.467-5.356-.423-11.581-3.694-18.009-4.393-5.381-.584-10.747-.095-15.812,1.317-.635,6.318-.08,13.816.438,21.082 4.207-1.942 7.735-4.562 11.859-6.588 6.715.294 12.275,1.054 18.008,2.635 5.819,1.605 9.02,3.841 16.689,3.074 4.912-.49 8.693-3.914 13.615-5.271 5.354-5.265 10.308-11.938 16.689-17.13 3.254-2.646 4.587-4.084 8.345-6.148 5.598-3.075 14.509-3.855 22.839-2.195 2.812.561 5.312,2.088 7.906,2.635 2.2.465 4.514.074 6.588.439 1.753.309 3.458,1.478 5.271,1.757 7.474,1.149 14.422-1.242 18.887-3.514 1.566-.797 3.261-1.12 4.393-1.757 1.626-.915 3.512-4.099 5.271-3.953 2.92.24 4.23,9.347 5.271,13.177 2.894,10.651 4.764,17.9 5.71,30.306 1.018,13.344 3.003,29.635 1.757,45.238-4.279-1.299-9.126-.453-14.494-.438-4.099.011-8.545-.81-12.298-.438-3.402.335-6.851,1.077-10.103-.879-4.547,1.732-9.353,1.282-14.934,1.317-2.062.014-4.017.85-6.148.879-1.698.022-3.506-.89-5.271-.879-2.233.014-4.332.828-6.589.879-9.026.196-19.123.241-27.23-.879-23.794,2.735-48.257-.405-72.909,1.757-.919.926-1.649-.578-2.195-1.317-2.594,2.312-8.396,1.088-13.615,1.317-4.66.205-9.786.879-14.055.879-2.935,0-5.943-.75-8.784-.879-15.798-.718-31.967,0-46.996,0-8.503,0-16.913-1.081-25.474-.878-11.746.277-23.422,1.276-35.138,1.316-1.181.004-2.703-.481-3.953-.438-1.208.042-2.332.792-3.514.879-2.829.206-6.442-.212-9.224-.439-1.561-.128-3.222-.894-4.832-.878-2.194.021-4.383,1.169-6.588,1.317-7.836.524-16.352-.85-24.596-1.317-10.79-.614-21.578.242-32.941.438-12.212.211-25.127-.263-36.455,0-24.075.557-48.645.026-72.909,0-13.184-.016-26.302,1.337-39.089-.438-7.036,1.19-14.94.931-22.839.878-7.22-.047-14.31.749-20.204-.438-2.149,1.039-5.571.705-7.466.879-.845.186-1.585-.301-.878-.439-12.402-.915-30.478-.64-44.794-.435zm317.111-328.969c-.44-.001-.521.356-.878.439 .001.44-.355.522-.438.878 .451,2.005-.424,3.911-.439,5.709-.064,7.303.878,14.439.878,21.521 0,3.177-.761,6.528-.438,9.662 .176,1.714.91,3.104.878,4.832-.028,1.489-.741,2.936-.878,4.393-.132,1.391.455,2.886.438,4.392-.047,4.367-1.094,9.064-.878,13.177 .074,1.401.784,2.657.878,3.952 .167,2.287-.896,4.322-.878,6.588 .022,2.81.602,5.779.439,7.027-.419,3.233.021,8.533.438,10.98 .105.613-.475.978-.438,1.316 .051.487.858.659.878.878 .479,5.411-.346,13.418-.439,18.009-.015.732-.448,1.398-.438,1.757 .018.735.917,1.203.878,1.757-.085,1.229-.725,2.606-.878,3.953-.629,5.49-.454,9.309.438,13.616-1.562,1.084-.875,2.712-.878,3.952-.015,4.915 1.033,10.245.878,15.372-.047,1.559-.828,3.25-.878,4.831-.269,8.385 1.054,17.095 1.317,25.035 .2,6.045-1.925,11.765-1.757,17.568 .097,3.346 1.437,6.202.879,9.663 1.037,1.012 4.339-.24 4.831,1.316 1.179,24.852-.787,53.174 0,79.497 6.999,1.975 15.597-2.92 24.155.439 .582-29.008-1.011-66.239.439-94.432-1.674-.146-4.533,1.479-5.271-.438-1.404-1.835.404-3.492.879-4.832-.188-2.385.826-3.565 1.758-4.831-.479-1.443-1.081-2.68-1.318-4.393-.907-6.551-.559-17.586-.438-24.156 .044-2.432.896-4.947.878-7.466-.081-12.865 1.05-26.455.88-40.408-.363-29.784-1.167-61.088 0-88.722-1.768.304-2.509-.421-3.953-.438-1.195,2.413.891,5.77-1.757,7.027-5.321.489-3.25-6.413-4.831-9.663 1.884-5.542.261-12.797.878-18.887-4.321-1.235-11.484.363-15.814-.87zm-54.462,7.467c.074,4.171 1.409,7.083 1.317,11.419 1.638,1.437 2.067,4.082 2.635,6.588 1.079.678 1.75,1.764 2.635,2.635 2.959,8.168 9.307,12.946 14.494,18.886 .758-.266-.034-2.083.878-2.195 .537,1.513 2.977,1.123 3.514,2.635-.453,5.441 2.328,8.955 1.757,13.176 2.314,2.947 2.812,6.908 3.953,10.98 .952,3.397 2.586,6.877 3.075,10.542 .865,6.496 3.068,9.765 3.953,14.933-.678,1.372-2.757,1.342-4.392,1.757-.299,3.604-.512,7.055.439,10.103 .313,1.004 1.132,1.603 1.317,2.635 .187,1.044-.305,1.643 0,2.635 1.191,3.871 3.961,6.628 5.71,10.103 3.288,1.293 5.495,5.866 9.223,5.271 .333-13.744.022-20.027 0-35.137-5.279-6.824-8.88-12.647-7.906-21.961 .165-1.57 1.123-3.038 1.318-4.831 .183-1.669-.237-3.522 0-5.271 .548-4.049 2.062-7.865 1.317-11.858-.261-1.398-1.695-3.908-2.635-5.709-2.455-4.705-4.59-6.747-7.027-10.103-2.496-3.436-4.843-7.32-6.588-10.979-.981-2.058-1.241-4.187-2.196-6.588-.565-1.422-1.885-2.721-2.196-4.393-.628-3.38.991-6.68 1.317-10.102-7.825-.305-22.335.154-25.912,4.829zm41.725.439c1.734.304 1.438-1.85 0-1.757v1.757zm9.223,14.933c-.731-3.661-.353-8.434-.439-12.737-8.004-1.063-7.456,17.009.439,12.737zm100.14.44c1.848.09 3.672.158 3.953-1.316-1.586.168-2.931.581-3.953,1.316zm-10.98,4.831c-.195-.83.597-2.646-.879-2.196-.283,1.07-.886,2.259.879,2.196zm18.007,7.906c.914,3.055 7.1,2.483 5.71-3.075-2.85-2.192-6.535.313-5.71,3.075zm-75.104-1.318c.737,1.102-.388,2.726 1.317,3.515 .362-1.541 1.323-2.484 1.757-3.953-1.125-.401-2.489-.713-3.074.438zm61.489,5.271c-.818.42-1.468-1.315-1.757,0 1.847,1.417 3.148-.748 5.271-.439 .327-1.352-1.204-.844-.878-2.196-1.328.408-3.416-.627-3.514,0 .498.929.169,1.275.878,2.635zm5.71,4.831c.199,1.85 1.993,2.105 3.074,3.073 .646-.589.013-1.441.438-1.757 1.703-1.256-.396.824-.879-1.316 .014.053.686-.397 0-.439-.053.97-1.861.186-2.633.439zm-5.71,13.176c1.608-1.45 2.886-5.432 2.196-7.906-1.506-5.404-13.385-5.898-14.494.878-.452,2.76.836,5.252 3.074,7.906 3.059.237 6.663,1.43 9.224-.878zm30.745-9.662c-.689-.189-.376-1.382-1.757-.878-.463,1.11 1.482,1.946 1.757.878zm-156.359,14.493c-2.215,2.557-3.117,6.134-4.392,9.224-1.311,3.177-3.133,6.528-3.074,10.541-1.983,3.287-3.447,7.094-3.953,11.859 4.963,1.823 9.497-.715 14.055-.878 4.482-.161 8.805,2.199 13.176,1.316-.071-2.988-2.021-5.565-2.635-8.345-.25-1.134.219-2.316 0-3.514-.18-.988-1.137-1.935-1.317-3.074-.153-.964.227-2.183 0-3.074-1.266-4.982-3.939-9.612-5.271-14.494-.939-3.444-.044-7.628-2.635-10.541-1.953,3.027-3.365,6.592-3.954,10.98zm145.818-7.466c1.676.312 2.115.292 3.514-.439 .063-3.894-4.71-2.231-3.514.439zm-46.996,25.913c-1.051,2.17.341,6.781-1.316,8.345-3.108.748-7.071-.218-8.784-2.196-.335-2.385.542-3.558.438-5.71-2.075-1.069-4.12.168-6.589,0-.23,2.696.503,6.358-.438,8.345-3.28-.413-5.837-.375-8.784.439 1.858-1.729 2.32-5.669.878-8.345-1.752.24-1.322.24-3.074,0-.861,2.987-.009,5.175-.438,8.783-.211,1.675 2.032.896 1.316,3.074-.425,1.479-1.803,2.003-2.195,3.515 1.617,9.982-.911,21.336 0,32.94 .069.889.771,1.827.879,2.635 .769,5.783-.735,10.875-.879,16.69-.031,1.312.782,2.175.879,3.514 .17,2.387-1.188,4.502-.879,6.588 1.538,1.318 1.623-1.629 3.515-1.316 1.742,8.651 3.873,16.916 7.905,23.276-.608,2.514 1.007,2.801 1.316,4.394v3.514c1.579,2.667 3.359,5.132 3.514,9.225-1.571.477-3.566.53-4.83,1.316 .104,22.118-.303,38.729-.879,55.78-.062,1.802.763,3.843.879,5.709 .312,5.037-1.034,10.164 0,14.934-.218,1.107 2.18-1.225 1.757.878-1.396.361-2.603.913-2.636,2.637 2.779,2.407 4.132,3.048 8.784,2.195 2.067,2.785 3.587,6.248 4.831,9.662 3.979,10.923 7.455,22.523 11.42,33.38 1.768,1.001 5.654,1.272 7.905.439 1.329-20.721-1.814-39.994-.878-58.854 1.066-21.501.472-44.292.438-66.76-1.15-1.104-3.833.951-5.271-.438-1.528-8.013 4.432-14.765 4.832-22.84 .062-1.258-.757-2.259-.879-3.514-.518-5.307.546-10.899.879-16.251 .704-11.34-.019-21.954 0-31.184 .016-8.396-1.446-16.981-.879-24.597 .004-.049.845-.735.879-.878 .116-.489-.435-1.346-.439-1.317 .569-2.674.796-5.101.878-7.906 .064-2.196.917-4.558-.438-4.832-.387,3.59-6.067,2.787-8.346,1.318 .203-2.291.963-4.801-.438-7.027-1.814-.053-2.752.764-4.833.44zm-31.184,18.008c.734-.729.35-2.579.438-3.953-.604.019-.965-.207-1.317-.439-1.358.93-.626,3.825.879,4.392zm-75.105-1.317c-2.315,7.598.688,15.129.439,22.399-.044,1.299-.795,2.587-.878,3.953-.268,4.396.846,9.625.878,14.493 .021,3.14-1.03,6.196.439,7.905-2.455,2.581-.383,6.184-.439,9.663-.022,1.36-.505,2.458-.439,3.514 .062,1.009.761,2.075.878,3.074 .724,6.168-.856,12.49-1.318,18.008 1.625,2.786 1.521,7.856 1.318,12.737-.229,5.508.213,12.087-1.757,16.251-3.879-5.153.447-15.954-1.757-23.278-4.456-.063-8.796-.012-11.42,1.758 1.525,6.249-2.486,15.742.439,20.643 1.402-2.701-.523-8.541 3.074-7.905 .215,2.323-.584,6.734 0,8.784-1.478,1.628-3.179-1.677-3.514.438 .976,24.675-1.326,53.379 1.757,80.814 2.773-.595 6.055-.681 8.785-1.317 .443-25.663.969-54.562-.439-79.059 2.996-.93 3.794,2.13 5.271,1.317 1.183-1.16 1.475-3.209 1.757-5.271 1.439-1.366 2.075-.828 3.514-2.194-.298-1.605-.613-3.194-.439-5.271 1.309-2.271 4.456.021 5.709-2.195 .804-1.648-.374-3.241-.439-5.271 1.429-2.233 3.285-1.146 5.271-1.317 .147-1.464 1.272-1.948.878-3.953 .629-1.127 3.009-.505 3.074-2.195 1.888-.705-.854-3.682 1.757-3.953 2.557.557 1.568,3.718 2.635,5.271 .237.347 1.026.147 1.318.439 1.38,1.381 2.016,2.062 3.953,3.074 .486,2.589.581,5.567 1.757,7.467 1.525.154 1.667-2.233 3.074-.879 1.188,2.181-.689,7.426 2.196,7.906 4.208-1.226 1.851-5.313 1.757-8.784-.029-1.145.812-2.251.879-3.515 .114-2.146-.321-4.938-.438-7.467-.631-13.561-.216-28.667-.439-41.725h-3.514c-.65,1.691-.676,4.009-1.317,5.709-2.657-.246-5.53.397-7.026,0-2.028-1.047-.118-6.031-2.635-6.588-5.113,1.41 2.111,10.313-2.196,12.298-2.692-.373-1.648-3.626-1.757-5.271-.15-2.267.1-4.881 0-7.027-.117-2.524-1.038-5.439-.878-7.905 .085-1.317.834-2.653.878-3.953 .405-12.009-1.684-22.677-.878-32.062-6.278-.429-13.237-1.557-19.768.44zm173.05,6.149c1.802-.664 2.235-3.864.878-5.271-4.729-1.062-4.026,5.094-.878,5.271zm-249.912,13.176c-1.264,1.58 0,4.375 1.318,4.831 2.559-.076 3.561-1.71 3.953-3.953-.443-1.607-4.465-3.6-5.271-.878zm295.15,18.008c-2.514-3.735-6.384-.511-5.271,4.393 2.975,2.14 6.198-.07 5.271-4.393zm39.529,4.391c1.835,1.837 6.263.628 6.147-2.196-1.715-2.241-7.086-2.524-6.147,2.196zm-27.231,11.42c1.132,5.245 10.998,4.52 12.737,0 1.903-4.946-2.459-9.801-8.784-7.468-2.163.799-4.794,3.568-3.953,7.468zm-242.884,19.765c-2.881,3.853-4.516,8.952-6.588,13.615 6.213.65 9.791-.688 16.251-.439 1.107-7.845.234-19.112.439-30.305h-1.317c-1.809,6.829-7.516,9.759-8.785,17.129zm80.815,24.595c7.521-.117 15.188,1.188 21.521.878 .417-1.991-1.533-3.572-2.195-5.271-.888-2.272-.792-5.11-1.757-7.467-.523-1.278-1.69-2.216-2.195-3.515-1.98-5.091-2.853-10.909-4.394-16.25h-1.317c-3.414,10.35-6.479,21.047-9.663,31.625zm57.097-28.548c-.604.566-.436,1.907-.438,3.074-2.151,4.228-2.802,8.956-3.952,13.615-1.158,4.688-3.821,8.964-3.953,14.056 3.018,1.01 6.291-.45 9.663-.439 2.898.01 5.966,1.93 8.345.439 .793-2.952-.976-5.349-1.757-7.906-2.451-8.012-3.512-16.666-6.149-24.156h-1.316c-.028.561-.566.607-.443,1.317zm-90.916,38.65c-4.115-5.929-6.315-13.131-11.419-18.009-.097-.342-.368-.511-.878-.438-5.394,8.075-12.532,14.406-16.69,23.717-1.863,1.943-7.298,4.006-4.392,7.906 1.342.316 1.601-.449 2.635-.439 .859-1.631.087-4.891 1.318-6.148 3.073-.523 9.728-1.386 10.98,1.317-.63,1.337-.079,2.628.439,3.952h2.196c1.483-4.845-2.532-15.893 2.196-20.643 1.067,1.129 3.229,1.163 5.271,1.316 2.369,2.385.744,4.137.878,6.59 .054.986.882,1.895.878,2.635-.006,1.276-.578,2.539-.439,3.953 .772,1.276 3.62.479 4.392,1.757v3.514c2.037-.458 3.802.811 4.832,0 .901-1.732-1.31-4.754 1.757-4.831-.519-2.576-2.53-4.098-3.954-6.149zm259.134-7.905c1.524,2.689 7.36,2.237 6.149-2.636-1.801-2.245-6.92-1.457-6.149,2.636zm-220.044.438c-1.659,26.966-.49,59.612 0,86.524 2.323.878 6.826.479 9.223,0 1.359.983-.112,4.799 2.196,4.832 .992-2.433-.344-6.268-.438-9.224-.124-3.875.901-7.626-.438-10.541 2.658-4.121-.217-10.666 0-15.812 .068-1.642.809-2.847.878-4.393 .289-6.318-.451-12.771 0-20.203-.78-.83-3.218-.003-3.074-1.757 .366-1.244 2.698-.522 3.515-1.318 .286-8.552.346-20.419 0-27.229-5.173-.116-9.047-.089-11.862-.879zm50.948,2.197c-2.009,8.501-1.407,23.991-1.757,36.454-.104,3.65.446,7.433.438,10.542-.011,4.019-.989,7.567.438,10.979-1.985,4.937.463,9.049 0,13.177-.446,3.982-1.692,6.765.438,10.102-1.868,9.411-.528,24.3-.878,36.455-.082,2.848-1.283,5.823.878,7.905 .812.652 2.087.842 3.515.879 1.135-2.011.773-5.85-.439-7.906 2.391-16.196-.156-37.742 0-56.219 .021-2.385-.111-6.159.439-8.345 .495-1.969 3.406-3.693 3.952-5.71 1.085-4.012.063-11.271 0-17.13-.131-12.003-.991-23.081.879-31.185-2.503-.001-6.276-1.844-7.903.002zm58.415,38.65c5.241,2.026 11.665.352 17.129.438-2.924-10.104-5.688-20.372-8.345-30.745h-1.317c-2.812,9.78-5.588,19.596-7.467,30.307zm-8.784-15.812c-.885,1.269-2.296,2.295-3.074,3.515-2.308,3.611-3.9,7.742-6.589,10.979-2.009,2.421-5.149,4.702-7.905,6.149-.807.423-2.497.507-3.953,1.316-1.847,1.027-2.345,2.586-3.952,2.636-4.141.128-4.396-4.209-6.148-6.589-.491-.664-1.627-1.141-2.196-1.757-2.005-2.17-3.669-5.641-6.588-6.148-.15,6.662.382,11.603 0,17.568 1.268.637 2.606,1.199 3.515,2.195 .009,2.266-1.195,4.765 1.316,5.271 3.476-.991-.74-7.686 3.074-8.784 3.135,1.471 7.383.116 9.663,1.317-.074,2.269.271,4.956-.439,6.589 1.031.14 1.648.692 3.074.438-.255-2.088-.635-4.051-.439-6.589 2.022-1.934 5.131-.354 8.347,0 .119,2.662.278,5.284.878,7.467 9.979-1.147 12.633-9.62 18.447-14.933-2.356-3.729-.676-6.97.438-11.42 1.958-7.822 4.07-15.564 6.148-21.961-.093-.492-.487-.685-.878-.878-5.259,2.963-9.204,8.553-12.739,13.619zm-166.9-8.344c-.991,1.791.211,5.774-2.196,6.148-2.923.647-2.98-.591-6.149-.438-.885,4.994.794,10.576.878,15.812 .018,1.107-.792,1.943-.878,3.073-.068.892.875,1.747.878,2.636 .003.988-.797,2.105-.878,3.074-.153,1.818.351,3.636.439,5.71 .332,7.783-1.276,16.667-.439,25.475 .438,4.614.201,9.121.439,13.615 8.298-.801 16.173,1.908 25.035,2.195-.108-12.007-.573-24.212 7.027-29.427 2.566,3.047 6.245,5.938 7.027,11.419 .788,5.514-.578,12.237 0,18.887 2.104-.092 4.829.438 5.709-.879-1.474-4.876-.15-12.27 0-18.445 .107-4.423-1.044-9.1-.878-13.616 .521-14.151 1.099-28.65.878-45.238-1.396-.965-2.354,1.541-4.831.878 .073,1.537-.117,2.812-.878,3.515-2.14,1.836-5.345-.096-8.784.438-.747-1.156-.044-3.763-.878-4.831-2.472-.13-4.443.242-6.149.878-1.115.789.437,4.243-1.318,4.394-2.646-.372-3.941-.372-6.588,0-1.296-1.048-.682-4.003-1.757-5.271-2.034.217-4.081-1.202-5.709-.002zm237.173,8.344c1.005,1.045 1.6,2.5 3.514,2.637 .097-.344.368-.512.879-.439 .679-.639.387-2.249.438-3.514-1.656-1.609-4.442-.761-4.831,1.316zm-10.101,6.588c-.333,3.543 2.415,8.134 7.467,6.59 2.604-.797 3.299-4.255 3.515-8.347-3.569-3.743-10.444-3.964-10.982,1.757zm-148.453,0h.878c.024-.562.563-.606.439-1.316h-.879c-.023.56-.562.607-.438,1.316zm168.656,5.71c1.508,1.078 4.178.282 3.514-2.195-1.708-1.279-3.482.413-3.514,2.195zm-69.395,8.346c.666,27.352.856,55.288.878,82.132 5.198,1.084 11.146.988 15.812-.439 1.759-4.694-.572-9.769-.878-14.933s0-10.597 0-16.251c0-17.121-1.63-34.962-.879-50.948-3.785-1.966-11.364-1.483-14.933.439zm-42.603,9.662c-.214,2.702.781,4.195.438,7.026-1.976.814-6.23,1.664-8.346.879-.246-2.113 1.08-8.369-3.074-7.905-1.906,6.31-.829,13.17-.879,19.765-.036,5.087-.663,10.004-.438,14.933 .146,3.254 1.181,6.359 1.316,9.663 .382,9.236-1.693,18.874 0,28.109 9.92.956 22.268.328 31.185,0-1.77-10.505-1.186-22.866-1.317-35.137-.112-10.466-1.591-21.521-1.757-30.745-.039-2.164 1.862-5.295-1.316-6.588-3.577,1.534-.548,9.649-7.906,8.345-1.826-1.979-1.444-6.169-2.635-8.784-1.742.162-4.209-.403-5.271.439zm26.353,27.67c.459,1.005.277,2.648.878,3.514 2.626.43 3.624-.769 5.271-1.316 .225-2.997-.303-6.744 1.757-7.905 1.682.369 3.526.573 5.71.438 .531-3.237 1.102-8.175 0-10.541-7.349,2.46-9.742,9.875-13.616,15.81zm-133.082,1.318c-.099-5.949.525-12.248-3.953-15.373-.097-.342-.368-.511-.878-.438-1.079,2.63-3.922,6.417-4.392,10.979-.187,1.819.374,3.798.439,5.71 .124,3.63-1.586,8.578 1.317,9.663 1.61-5.266-1.485-16.702 3.514-19.765 5.258,3.175 1.987,14.044 3.514,18.886 2.214-1.843.501-5.955.439-9.662zm-71.152-6.589c-2.436-.558-5.387-.135-7.027-.438-1.004-.899.125-3.934-.878-4.832-2.016.577-3.385-.56-5.271.438-.163,2.181.662,5.348-1.317,5.71-3.496-.875-6.151-.482-8.784-.438v-4.831c-1.231-.525-3.031-.483-4.832-.439-3.096,4.777-2.174,11.93-3.514,18.009-.289,1.309-1.134,2.266-1.317,3.514-.26,1.764.187,3.473 0,5.271-.514,4.933-2.416,9.887-1.757,14.494 2.979-.177 4.607-2.981 7.027-3.514 2.155-.474 4.557.374 6.588,0 2.427-.447 5.709-2.366 7.906-3.514 6.224-3.254 11.868-7.134 18.886-9.225-.289-6.934-1.804-13.686-2.635-20.204-.245-1.917.661-4.136-.878-5.709h-1.318c-.185,2.011.565,4.957-.879,5.708zm198.963.879h2.196c1.025-2.338.069-6.117-2.196-6.588-.817,1.482-.53,5.052 0,6.588zm-190.618,18.008c1.31.645 3.632-.892 5.271-1.318-.126-7.34-2.152-12.78-2.635-19.764-1.69-1.093-3.489-2.075-5.71-2.637-.168,7.394 2.515,15.603 3.074,23.719zm5.271-20.204c-.024.562-.563.607-.439,1.316 2.737,3.2.542,19.186 6.588,16.251 .352-5.875.86-11.799-.878-17.129-2.41.596-4.086-1.195-5.271-.438zm-97.066,4.393c-.034.562.623.827.878,1.757 7.705-.212-.561-6.971-.878-1.757zm296.468.878c-.201,2.142.46,5.146-.438,6.588-3.36-.339-6.506,1.066-8.784.439-2.834-1.118.754-8.659-4.392-7.467-1.773,2.225-.185,5.177 0,7.905 .839,12.516-.871,28.403 2.194,39.09 4.462.756 11.778.687 16.251,0 .277-16.509 1.261-30.828.439-47.435-1.28-.735-5.109-.898-5.27.88zm-415.933,2.635c1.352,1.282 2.828,2.442 5.709,2.195 .691-1.064 1.638-1.875 1.318-3.952-.342-.098-.511-.368-.439-.879-2.034-1.569-7.401-1.291-6.588,2.636zm157.237,2.196c-.285,3.875 1.063,6.658-1.318,8.346-1.931.852-5.488.075-7.027,1.317-.916-2.104-4.062-3.51-6.588-2.636-.069,3.151.453,6.895-1.318,8.346-1.443.898-4.448.237-6.588.438-.731-.587-.147-2.488-.878-3.074-2.479-.62-3.829-.059-5.271,1.316 .595,1.921.108,2.208.439,4.394-1.938,1.575-4.213,2.812-7.906,2.635-.68-1.076-.265-3.248-2.196-3.074-1.577-.259-2.125.512-3.075.879-1.192,2.93 1.19,5.171-.439,8.346 15.425,1.804 35.962,7.449 50.07,1.316 .418-9.244 1.984-17.341 3.514-25.474-.943-.814-3.217-.297-4.832-.439-.731-.586-.146-2.487-.878-3.073-2.667.335-4.257-.979-5.709.437zm168.658,5.27c2.705.812 2.266-4.988.438-4.831 .325,2.081-.493,3.02-.438,4.831zm2.634,2.636c-3.216-.813-4.025,0-7.468,0-1.546-.943-.902-4.074-2.194-5.271-2.575.681-4.246.122-7.027,0-1.146,2.062.099,5.038.438,7.027 6.104,2.765 11.013,6.009 14.934,9.663 1.445,1.347 3.653,3.187 3.514,3.952-.006.032 3.072,2.193 3.074,2.195 1.727,1.892 3.32,5.53 4.831,7.027 1.869,1.853 5.129,3.114 7.906,3.953-3.453-12.944-8.938-23.858-13.176-36.016-5.614-1.512-2.052,6.15-4.832,7.47zm165.583-2.196c1.861.626 3.507,1.471 3.514,3.953 1.711-.046 1.605-1.907 1.757-3.514-1.433.113-2.114-.521-2.196-1.757-.305-1.647 2.021-2.923 1.317-3.515-1.532,1.544-3.605,2.545-4.392,4.833zm4.392-1.319c1.869.26 3.076-.146 2.636-2.195-1.792-.181-2.772.45-2.636,2.195zm-417.689.879c-.856-1.109-3.318-.126-3.514.879 1.032.432.729,2.198 2.196,2.195 1.811-1.117 3.274-2.582 4.392-4.393-.627-.105-.741-.724-1.318-.878-.512.807-1.148,1.489-1.756,2.197zm419.885,4.393c1.083.058 2.115.066 2.636-.439-.251-1.213-.466-2.463-2.196-2.195-.506.518-.497,1.551-.44,2.634zm-162.947,25.474c-1.655-1.332-2.443-3.506-3.953-5.271-.851-.996-2.778-2.398-3.514-3.075-.551-.507-.57-1.463-.878-1.757-1.564-1.49-3.72-2.312-5.271-3.953-5.247-5.55-11.065-11.281-20.644-11.858-10.349-.624-22.295,1.44-33.38,1.758-5.022.144-9.607-1.148-14.494-1.758-1.456-.181-3.13.17-4.832,0-2.394-.236-4.963-1.161-7.466-1.316-20.183-1.254-32.739,5.746-46.557,10.541-2.05,3.326-5.994,3.998-9.663,5.71-4.207,1.963-6.819,3.697-12.298,2.196-4.478,3.647-7.739,4.334-14.055,5.709-2.176.474-4.557,1.486-6.588,1.757-4.984.663-7.91-.396-11.419-.878-5.256-.725-11.338-.533-17.129-1.317-6.974-.945-13.834-3.58-20.643-4.393-5.521-.659-10.91-1.419-15.812-1.757-5.821-.4-7.946,1.919-11.419,0-2.372,2.177-6.514,2.185-9.224,3.073-2.443.804-3.855,1.381-5.709,2.196-2.633,1.158-5.212,2.348-7.028,3.953-2.953-.074-5.095,2.406-7.466,3.514-2.477,1.155-5.939,1.063-7.027,3.953 13.28-.058 25.768-.273 38.211-.438 12.001-.159 23.795,1.526 36.455.878 2.256-.115 4.657-.892 7.027-.878 4.096.021 8.109.837 12.298.878 25.988.258 50.518-1.046 72.03-1.317 10.532-.133 23.116-.029 33.819.439 2.569.111 4.937.773 7.467.878 7.138.293 14.508-.413 20.643-.878 4.191-.318 7.273.428 9.663.438 4.963.023 10.57-2.25 14.494.438 6.271-1.969 13.501-.748 20.644-.878 11.308-.206 22.955-.881 33.381-.439-2.324-3.446-6.575-3.664-9.663-6.148zm155.92-26.792c.054,1.117.64,1.703 1.757,1.758 1.18-1.398-.258-2.837-1.757-1.758zm-419.886,3.075c2.138,1.218 3.684-.271 3.953-2.196-1.392-1.757-4.268-.341-3.953,2.196zm434.38,0c1.062-.254.977-1.658 1.317-2.636-.521-.505-1.554-.497-2.636-.438 .06,1.404-.432,3.36 1.319,3.074zm-419.447,6.148c.474,1.723-1.017,5.409.878,5.71 1.41-3.351.245-9.101-.878-14.056h-1.317c-1.362,2.946.059,6.589 1.317,8.346zm-7.905-4.392c1.506.961 4.654.443 4.392-1.757-.947-1.879-5.241-.93-4.392,1.757zm483.131-1.756c.685.634.866,1.77 2.636,1.317 .325-2.015-2.001-2.661-2.636-1.317zm-494.111,11.858c-.67-5.501 3.339-6.323 4.831-9.662-1.901-.148-1.689-2.41-3.514-2.636-1.593,3.248-3.801,8.655-1.317,12.298zm422.521-10.98c.595.14.84.626 1.758.439 .328-1.498-1.679-1.713-1.758-.439zm12.736,3.075c1.792.136 1.792-3.649 0-3.514v3.514zm56.22-.879c.604-.563.766-2.626-.438-2.635-1.327.73-1.725,2.513.438,2.635zm-66.761,1.757c.65.229 1.107.65 1.757.879 1.32-.877 2.34-2.053 2.196-4.393-2.725-.236-4.131.847-3.953,3.514zm14.494-3.075c-1.851,1.713-2.399,5.939 0,7.468 5.707,1.128 4.755-9.718 0-7.468zm-433.501,3.954h2.196c-.066-1.298 1.276-3.101-.439-3.514-.391,1.365-1.467,2.046-1.757,3.514zm424.278,0c1.361.045 1.253-1.382 3.073-.879v-2.635c-2.569-.374-2.835,1.555-3.073,3.514zm-419.886.438c.188-.837 1.255-.794.878-2.195-.562-.024-.608-.562-1.317-.438 .253.771-.531,2.578.439,2.633zm476.983-2.195v1.317h2.636c.104-1.476-1.632-2.269-2.636-1.317zm4.831,2.195c.157,1.308.7,2.229 1.318,3.075 3.575.502 5.438-.713 4.831-4.394-1.664-1.835-5.494-.524-6.149,1.319zm-474.347,3.953c.313-2.218-.6-3.206-.878-4.831-8.101-2.947-4.93,10.401.878,4.831zm-13.616,3.514c-.473-2.987.939-6.121-.439-7.467-2.073,1.505-3.946,7.073.439,7.467zm446.238-4.831c1.166-.591 2.045-1.47 2.637-2.636h-2.196c-.562,1.143-.965,1.325-.441,2.636zm-26.792,4.391c.765-.031 1.365.1 1.757.439 .917-1.864 1.697-3.865 1.757-6.588h-3.514c-.508,1.431-.824,4.78 0,6.149zm7.028-3.513c.831.099.97-.494 1.757-.438 .142-1.02-.069-1.688-.438-2.196h-1.317c-.138,1.025-.862,1.813-.002,2.634zm-407.588,2.635c.638-.239 2.27.515 2.196-.438-1.617-1.504.848-2.642.878-3.952-1.031-.141-1.648-.694-3.074-.439-.679.898-.679,3.93 0,4.829zm-16.251-.878c1.809.229 2.235-2.377 1.318-3.514h-1.318c-.259,1.643-1.321,2.496 0,3.514zm429.549,3.075c2.039-.157 2.896-1.496 3.515-3.074-2.554-.083-2.714-2.559-4.394-3.514-1.782,2.549 1.249,3.134.879,6.588zm51.387-3.953c1.432.114 2.113-.521 2.195-1.757-.52-.506-1.553-.497-2.636-.439-.138,1.018.073,1.686.441,2.196zm-522.221,3.953c2.558,1.643 6.497-.103 6.588-3.514-1.902-3.854-7.358-1.439-6.588,3.514zm492.795-4.832c-2.03-.886-4.03.616-5.71-.878-4.881,8.657 10.46,10.759 5.71.878zm-16.251,1.318c1.433.113 2.113-.521 2.196-1.757h-1.318c.32,1.198-.872.884-.878,1.757zm-69.835-1.318c-1.41,5.083 1.024,10.088 1.318,14.934 .107,1.797-1.401,3.85.438,5.271 8.298-.646 16.675-.941 25.035-.439 .226-1.285-1.395-2.476.879-2.194-1.041-1.805-3.021-1.915-4.393-3.515-.292-.341-.477-2.008-.878-2.636-1.543-2.406-3.702-4.403-4.394-7.027-1.765-.835-2.381-4.786-4.393-3.952-.062,1.693.344,3.856-.878,4.393-1.889.711-6.456.711-8.345,0-.119-1.491.34-3.562-.439-4.393-.726-.738-2.575-.352-3.95-.442zm-346.098,3.075h1.318c-.069-.519.076-1.247-.439-1.317-.04.691-1.121.343-.879,1.317zm473.469-1.318h-1.757c-.346,1.691 2.104,1.691 1.757,0zm-70.713,1.756c-3.14,7.69 8.44,8.47 5.271,0-.777-1.115-4.842-2.411-5.271,0zm55.341,2.197c1.865-.038 2.771-1.037 2.636-3.074-2.025-1.441-3.57,1.664-2.636,3.074zm-492.356-1.757c-.633.978-1.103,2.118-.878,3.953 2.154.129 6.164-.963 7.027-3.515-1.042-3.662-3.093.21-6.149-.438zm450.192,0c1.244.335 3.315,1.296 4.393.438 .193-2.452-3.962-2.108-4.393-.438zm-523.979,2.196c.562.601 2.074.601 2.635,0v-1.758c-1.058.181-.955-.802-2.196-.438-.368.51-.579,1.178-.439,2.196zm42.603,2.636c2.809.576 3.638-4.166 1.318-4.832-.962.977-2.704,2.9-1.318,4.832zm535.838-.44c-.124-1.131-2.485-4.131-3.514-4.393-2.984-.759-4.627,1.135-6.588,3.514-1.571,9.697 10.874,7.948 10.102.879zm-514.756-1.317c-.117,1.402.494,3.195 2.635,3.514 .562-.023.608-.562 1.318-.438 2.376-5.455-3.604-7.251-3.953-3.076zm6.149-.439c1.373.201 1.404-.938 1.318-2.196h-1.757c-.363,1.24.619,1.137.439,2.196zm450.631.439c.777-.833 1.857-1.363 2.635-2.196-1.383-1.521-3.751,1.29-2.635,2.196zm60.611,2.635c.604-.019.964.207 1.316.439 1.396-.654 1.45-2.649 1.317-4.831-2.436-2.262-3.624,1.538-2.633,4.392zm-36.455-3.074c.744.692 3.057.476 3.073-.879-1.241.075-3.011-.378-3.073.879zm-494.112,1.317c.847.179.347,1.703 1.757,1.316-.111-1.574 1.319-1.607 1.318-3.073-1.275.336-2.527.694-3.075,1.757zm-58.854,5.27c3.411,4.392 8.44-1.094 6.588-5.71-4.125-2.943-6.094,2.271-6.588,5.71zm66.76,2.197c4.242-.307 1.922-6.367 3.514-8.345-.561-.024-.608-.563-1.317-.439-.567,3.093-3.067,4.252-2.197,8.784zm466.002-8.784c-2.075.432-3.851,2.771-4.393,5.71 1.919.908 1.892,1.563 2.196,3.515 9.607,1.89 11.05-11.062 2.197-9.225zm-467.32,2.634c.831.1.969-.494 1.757-.438 .426-3.401-4.282-.828-1.757.438zm445.36,3.953c1.394-.912 1.899-2.488 3.074-3.514 .664-.58 2.599.021 1.757-1.757-3.12-3.087-5.742,2.961-4.831,5.271zm37.773-3.513c.649.229 1.106.65 1.757.879 .523-.849 1.675-2.227.879-3.075-1.867-.255-2.039,1.183-2.636,2.196zm-487.086.439c1.262-.057 2.086-.551 1.757-2.196-1.235.082-1.871.764-1.757,2.196zm16.251,0c1.389.647 2.112-2.524.439-2.196 .18,1.059-.802.955-.439,2.196zm516.511,2.197c1.35-.555 3.142-.666 3.515-2.195v-1.317c-2.55-1.71-5.261,1.001-3.515,3.512zm-585.467.877c.974,3.359 7.139,2.371 7.027-1.757-2.658-4.841-8.214-2.339-7.027,1.757zm44.8-2.196c.457,2.188 1.739,4.86 4.392,3.514-.024-2.025.195-4.294-.439-5.709-2.548-.499-2.924,1.175-3.953,2.195zm519.147,5.271c.383-1.688 1.248-6.508-.439-7.466-.409,2.14-2.849,6.125.439,7.466zm-9.663-5.709c.116,3.104 1.662,4.78 5.271,4.392 .575-1.495.872-4.826-.438-5.71-2.016.034-3.05,1.05-4.833,1.318zm-9.223,3.074c1.75.14 3.245.022 3.952-.879v-2.636c-2.761-1.359-5.581.045-3.952,3.515zm-505.532-2.636v1.757c1.748.284 1.766-1.162 3.514-.878 .422-1.893-2.776-1.487-3.514-.879zm-5.709,10.541h3.074c.831-3.213.068-7.431 0-10.103-4.544-1.14-4.182,6.289-3.074,10.103zm447.116-7.466c2.074.317 1.927-1.588 2.195-3.074-2.005-.006-3.045,1.442-2.195,3.074zm3.074,0c2.582,1.935 6.753-.015 7.026-3.074-2.24,1.751-6.802-1.047-7.026,3.074zm30.306-1.318c2.039.529 2.108-1.746.438-1.757-.137.594-.623.839-.438,1.757zm20.643,5.27c1.477.693 3.352.081 3.953-1.316-1.013-.599-2.451-.771-2.196-2.636 .644-.969 3.479.259 3.515-1.317-2.914-4.587-8.401,1.213-5.272,5.269zm-472.152-4.391c2.255-.021 1.936-2.503-.439-2.196-.14,1.018.071,1.686.439,2.196zm-9.223,3.953c3.219.002 3.362-6.986-.439-5.271-1.909.862-2.322,5.268.439,5.271zm450.631-2.196c1.578.733 3.134-.483 3.515-2.196-.97-2.639-4.103-.557-3.515,2.196zm-491.039-.879c.599-.561.678-2.151-.439-2.195-.598.558-.678,2.151.439,2.195zm-2.196,4.392c.09-2.433.062-4.746-.878-6.148h-1.757c-1.466,2.999 2.304,3.587 2.635,6.148zm486.207-4.392h1.757v-1.757c-1.118.054-1.703.64-1.757,1.757zm70.274.879c-.046-1.125-.249-2.094-.879-2.636-.706.945-1.593,2.987.879,2.636zm10.98-1.318c-.267,1.053-.632,2.003-.439,3.515 1.947.043 3.286-.521 3.515-2.196-.102-2.306-1.145-1.383-3.076-1.319zm-538.034,0c-1.341,1.391-.341,4.024 0,6.148h3.514c2.434-2.342 1.105-7.13-3.514-6.148zm469.956,5.271c2.859.077 4.988-.575 4.393-3.953-.708-.902-2.201-1.019-3.952-.879-1.118,1.214-1.791,3.446-.441,4.832zm82.572-2.636c.187-.839 1.255-.795.878-2.196-1.305-.523-1.887,1.851-.878,2.196zm-578.002-1.317c-.624,2.756.286,6.375 4.392,5.71 2.118-2.67-.582-7.597-4.392-5.71zm514.317,4.391c2.188.46 2.44-4.292.878-4.831-1.471,1.281-2.011,2.608-.878,4.831zm56.217-4.391c0,2.438 2.699,2.622 3.074.439-1.098-.637-1.723-1.064-3.074-.439zm-32.5,3.953c1.711-.046 1.605-1.908 1.757-3.514-.562-.024-.608-.563-1.317-.439-.654,1.213.243,2.231-.44,3.953zm-62.369-.879c1.633,1.088 4.399.189 3.953-2.196-1.742-.822-4.086-.132-3.953,2.196zm77.742.879c3.422.709 2.148-3.312.438-3.514-.679.638-.387,2.247-.438,3.514zm-570.536.438c1.646.036 3.554.333 3.075-1.757-.71-.899-2.114-1.106-3.075-1.757-.955,1.195-.748,2.142 0,3.514zm499.822-.438c.512.368 1.179.579 2.196.438 .434-1.029.771-2.156.879-3.514-1.769.283-3.331.769-3.075,3.076zm49.192-.44c1.63-.127 3.017-.497 3.514-1.757-1.673-1.446-4.592-.455-3.514,1.757zm-501.14,1.757c1.063,1.012 2.134-.446 3.514-.438 .155-1.765-.007-3.214-1.317-3.514-1.158.892-1.582,2.517-2.197,3.952zm442.725-.879c.343-.939 1.066-2.454.438-3.073h-4.83c.715,1.772 2.034,2.942 4.392,3.073zm14.055,0c1.237.456 4.109.842 5.271,0 .236-4.114-3.651-1.743-5.71-3.073-.256,1.425.298,2.042.439,3.073zm69.395-2.195c.559.598 2.15.678 2.194-.439-.558-.599-2.15-.679-2.194.439zm-563.069,2.635v-1.757c-.639-.679-2.249-.387-3.514-.439-.663,2.478 2.007,3.274 3.514,2.196zm516.073-.878c.848.854 2.688.459 2.196-1.318h-1.758c.02.604-.205.964-.438,1.318zm34.259,0c.657-.075 1.62.156 1.757-.439-.584-.571-1.635-.58-1.757.439z"/>
</svg>
